<svg width="500" height="412" viewBox="0 0 500 412" fill="none" xmlns="http://www.w3.org/2000/svg">
<g clip-path="url(#clip0_31_70)">
<path d="M406.916 41.4028C410.111 28.3495 407.073 13.1262 396.752 4.54016C396.55 19.1543 391.195 33.2259 381.633 44.2654C377.931 48.5094 373.371 52.8436 373.191 58.4774C373.08 61.9829 374.788 65.3499 377.142 67.9461C379.496 70.5423 382.465 72.4852 385.399 74.3985L385.83 75.1602C395.276 65.6157 403.721 54.4562 406.916 41.4028Z" fill="#F0F0F0"/>
<path d="M396.545 4.73087C400.503 15.1246 401.092 26.5035 398.227 37.2515C397.651 39.5762 396.713 41.7955 395.448 43.8277C394.151 45.7674 392.36 47.3238 390.259 48.3353C388.32 49.3179 386.223 50.0979 384.555 51.5356C383.713 52.2842 383.038 53.2028 382.575 54.231C382.111 55.2593 381.87 56.3741 381.867 57.5022C381.787 60.313 382.719 62.9851 383.722 65.5665C384.835 68.4327 386.036 71.392 385.779 74.53C385.748 74.9102 386.339 74.9365 386.37 74.5569C386.817 69.0972 383.116 64.4856 382.529 59.1901C382.255 56.7191 382.723 54.1505 384.547 52.3489C386.141 50.7735 388.303 49.9672 390.276 48.9894C392.339 48.0327 394.137 46.5845 395.513 44.7712C396.877 42.8102 397.899 40.6308 398.534 38.3263C400.046 33.1611 400.738 27.7898 400.584 22.4093C400.443 16.2676 399.253 10.1954 397.068 4.45534C396.933 4.10012 396.41 4.37797 396.545 4.73086V4.73087Z" fill="white"/>
<path d="M399.353 33.8451C401.218 34.0818 403.107 33.6465 404.681 32.6171C406.256 31.5876 407.414 30.031 407.948 28.2252C408.055 27.8594 407.493 27.6758 407.386 28.042C406.891 29.7245 405.812 31.1744 404.344 32.13C402.876 33.0857 401.115 33.4841 399.38 33.2533C399.002 33.2036 398.978 33.7957 399.353 33.8451V33.8451Z" fill="white"/>
<path d="M391.308 47.9669C388.926 44.9449 387.769 41.1347 388.067 37.2959C388.097 36.9156 387.506 36.8892 387.476 37.2691C387.174 41.2644 388.386 45.2271 390.872 48.3664C391.109 48.6654 391.544 48.2643 391.308 47.9669V47.9669Z" fill="white"/>
<path d="M399.73 16.5962C398.99 16.6553 398.246 16.5291 397.566 16.229C396.886 15.9289 396.291 15.4643 395.834 14.8769C395.601 14.575 395.166 14.9765 395.397 15.2764C395.905 15.923 396.563 16.4353 397.313 16.7685C398.064 17.1018 398.885 17.2457 399.704 17.1879C399.781 17.189 399.856 17.1603 399.914 17.1079C399.971 17.0554 400.006 16.983 400.012 16.9054C400.016 16.8271 399.988 16.7506 399.935 16.6927C399.882 16.6348 399.809 16.6001 399.73 16.5962V16.5962Z" fill="white"/>
<path d="M352.118 12.9905C352.258 13.1832 352.398 13.3759 352.537 13.5733C354.409 16.1734 356.068 18.9216 357.496 21.7907C357.61 22.0108 357.722 22.2356 357.829 22.4585C361.197 29.4076 363.247 36.9227 363.875 44.6215C364.122 47.6853 364.137 50.7635 363.918 53.8294C363.615 58.0636 362.951 62.6304 364.031 66.6006C364.139 67.0161 364.272 67.4244 364.431 67.8234L384.869 75.6278C384.925 75.6222 384.979 75.6213 385.034 75.6158L385.836 75.9648C385.858 75.8074 385.878 75.6438 385.9 75.4864C385.914 75.3952 385.922 75.3023 385.936 75.2111C385.943 75.1497 385.95 75.0882 385.961 75.0333C385.963 75.0129 385.966 74.9924 385.966 74.9766C385.977 74.9217 385.98 74.8695 385.989 74.8193C386.102 73.9048 386.208 72.9879 386.309 72.0686C386.311 72.0639 386.311 72.0639 386.308 72.0575C387.141 65.06 387.143 57.9882 386.313 50.9903C386.285 50.7818 386.26 50.5687 386.223 50.3567C385.793 47.2353 385.11 44.1542 384.179 41.1444C383.664 39.4979 383.066 37.8786 382.388 36.2927C380.627 32.1983 378.235 28.4069 375.298 25.0573C369.443 18.3808 361.521 13.6546 352.786 13.0316C352.562 13.0158 352.343 13.0016 352.118 12.9905Z" fill="#F0F0F0"/>
<path d="M352.065 13.268C361.472 19.1793 368.781 27.9097 372.953 38.2192C373.89 40.4226 374.475 42.7603 374.686 45.1462C374.817 47.477 374.322 49.8002 373.253 51.8746C372.295 53.8288 371.089 55.7166 370.622 57.87C370.399 58.9759 370.412 60.1164 370.66 61.2168C370.909 62.3172 371.386 63.3527 372.062 64.2553C373.687 66.5481 376.037 68.1192 378.389 69.5757C381 71.1928 383.738 72.831 385.419 75.4917C385.622 75.8141 386.11 75.4788 385.906 75.1569C382.983 70.5277 377.256 69.078 373.604 65.2039C371.9 63.3962 370.73 61.0631 371.104 58.5247C371.43 56.305 372.672 54.3572 373.659 52.387C374.731 50.3787 375.297 48.1379 375.305 45.8603C375.216 43.4714 374.722 41.115 373.844 38.8921C371.947 33.8561 369.271 29.1502 365.915 24.9469C362.111 20.1283 357.512 15.9972 352.317 12.7322C351.996 12.5303 351.745 13.0673 352.065 13.268V13.268Z" fill="white"/>
<path d="M371.805 34.8203C373.436 33.8843 374.683 32.3977 375.321 30.6261C375.96 28.8544 375.949 26.9131 375.29 25.1488C375.156 24.7923 374.596 24.9848 374.731 25.3418C375.347 26.9836 375.357 28.792 374.759 30.4405C374.161 32.089 372.995 33.4691 371.47 34.3317C371.139 34.5196 371.475 35.0071 371.805 34.8203Z" fill="white"/>
<path d="M373.869 50.9478C370.151 49.9715 366.937 47.6273 364.867 44.3825C364.663 44.0609 364.175 44.3961 364.38 44.7174C366.539 48.0899 369.889 50.5227 373.76 51.5301C374.129 51.6259 374.236 51.0431 373.869 50.9478V50.9478Z" fill="white"/>
<path d="M361.74 20.8202C361.184 21.3142 360.514 21.6621 359.791 21.8327C359.067 22.0033 358.313 21.9912 357.595 21.7976C357.228 21.6971 357.122 22.2801 357.487 22.3798C358.281 22.5901 359.114 22.6024 359.913 22.4157C360.713 22.229 361.455 21.849 362.074 21.3088C362.137 21.2628 362.179 21.1946 362.194 21.1182C362.208 21.0417 362.193 20.9626 362.151 20.8971C362.106 20.8326 362.038 20.7884 361.961 20.774C361.884 20.7596 361.804 20.7762 361.74 20.8202V20.8202Z" fill="white"/>
<path d="M325.094 307.848C256.571 307.848 200.823 252.001 200.823 183.357C200.823 114.712 256.571 58.866 325.094 58.866C332.338 58.8651 339.569 59.4928 346.705 60.742C346.794 60.7574 346.879 60.7902 346.955 60.8386C347.032 60.887 347.098 60.95 347.15 61.024C347.201 61.0979 347.238 61.1815 347.258 61.2697C347.278 61.358 347.28 61.4493 347.264 61.5384C347.249 61.6276 347.216 61.7127 347.167 61.789C347.119 61.8653 347.056 61.9313 346.982 61.9832C346.908 62.035 346.824 62.0718 346.736 62.0913C346.648 62.1108 346.557 62.1127 346.468 62.0968C339.41 60.8616 332.258 60.2409 325.094 60.2416C257.328 60.2416 202.197 115.471 202.197 183.357C202.197 251.243 257.328 306.472 325.094 306.472C392.859 306.472 447.991 251.243 447.991 183.357C448.021 152.673 436.584 123.089 415.931 100.43C415.809 100.295 415.746 100.118 415.755 99.9361C415.764 99.7545 415.844 99.5839 415.978 99.4614C416.112 99.339 416.289 99.2746 416.471 99.2825C416.652 99.2904 416.823 99.3698 416.946 99.5034C437.829 122.416 449.394 152.33 449.364 183.357C449.364 252.001 393.616 307.848 325.094 307.848Z" fill="#E4E4E4"/>
<path d="M379.887 101.562C393.466 101.562 404.474 90.5345 404.474 76.9314C404.474 63.3283 393.466 52.3008 379.887 52.3008C366.308 52.3008 355.3 63.3283 355.3 76.9314C355.3 90.5345 366.308 101.562 379.887 101.562Z" fill="#00A8E9"/>
<path d="M376.533 89.7505C376.109 89.7505 375.69 89.6514 375.31 89.4612C374.93 89.2709 374.6 88.9947 374.345 88.6543L367.638 79.6947C367.422 79.4069 367.265 79.0793 367.176 78.7308C367.087 78.3822 367.068 78.0195 367.118 77.6634C367.169 77.3072 367.289 76.9645 367.472 76.6549C367.655 76.3454 367.898 76.0749 368.185 75.8591C368.472 75.6432 368.799 75.4861 369.147 75.3968C369.495 75.3076 369.857 75.2878 370.213 75.3387C370.568 75.3896 370.91 75.5101 371.219 75.6935C371.528 75.8768 371.798 76.1193 372.014 76.4071L376.402 82.2683L387.673 65.3319C388.077 64.7298 388.702 64.3124 389.412 64.1713C390.122 64.0302 390.859 64.1768 391.461 64.5791C392.064 64.9814 392.482 65.6064 392.625 66.3173C392.768 67.0282 392.624 67.7669 392.224 68.3715L378.809 88.5303C378.566 88.8949 378.24 89.1959 377.857 89.4081C377.475 89.6202 377.047 89.7373 376.609 89.7496C376.584 89.75 376.559 89.7505 376.533 89.7505Z" fill="white"/>
<path d="M321.896 164.037L283.981 58.371L284.943 58.0247L277.97 38.5898L277.008 38.9364L265.367 6.49351C264.932 5.2818 264.263 4.16774 263.399 3.21494C262.534 2.26214 261.491 1.48926 260.328 0.94043C259.165 0.391598 257.906 0.0775568 256.622 0.0162481C255.338 -0.0450605 254.055 0.147561 252.845 0.58311L184.303 25.2648C183.093 25.7003 181.981 26.3702 181.03 27.2363C180.079 28.1024 179.307 29.1476 178.759 30.3124C178.211 31.4772 177.898 32.7387 177.837 34.0248C177.775 35.311 177.968 36.5966 178.402 37.8083L186.519 60.4294L185 61.0155L190.182 74.4943L191.398 74.0251L192.474 77.0233L191.179 77.5226L196.361 91.0014L197.352 90.619L234.932 195.352C235.365 196.565 236.033 197.681 236.897 198.635C237.761 199.589 238.805 200.363 239.968 200.912C241.131 201.462 242.391 201.775 243.676 201.835C244.961 201.896 246.245 201.701 247.454 201.263L315.996 176.581C318.437 175.699 320.429 173.883 321.535 171.532C322.641 169.18 322.771 166.485 321.896 164.037Z" fill="#3F3D56"/>
<path d="M243.849 197.78C242.884 197.778 241.943 197.478 241.153 196.922C240.364 196.365 239.765 195.578 239.438 194.669L182.312 35.4619C181.891 34.2893 181.953 32.9973 182.483 31.8702C183.013 30.743 183.969 29.873 185.139 29.4514L199.723 24.1999L199.701 24.7111C199.664 25.5984 199.845 26.4813 200.228 27.282C200.611 28.0827 201.186 28.7767 201.9 29.3028C202.614 29.8289 203.446 30.1709 204.324 30.2988C205.201 30.4267 206.096 30.3365 206.93 30.0361L239.296 18.3816C240.077 18.023 240.763 17.4852 241.299 16.8117C241.834 16.1383 242.203 15.348 242.377 14.505C242.549 13.676 242.523 12.818 242.301 12.001C242.079 11.184 241.668 10.4311 241.1 9.80391L240.758 9.4234L255.822 3.99863C256.993 3.57888 258.282 3.64133 259.407 4.1723C260.531 4.70327 261.4 5.65942 261.822 6.83107L316.326 158.728C317.438 161.839 317.273 165.266 315.867 168.256C314.46 171.246 311.927 173.555 308.824 174.676L245.438 197.501C244.929 197.685 244.391 197.78 243.849 197.78V197.78Z" fill="white"/>
<path d="M238.265 84.8582C248.503 84.8582 256.802 76.5439 256.802 66.2877C256.802 56.0315 248.503 47.7173 238.265 47.7173C228.027 47.7173 219.727 56.0315 219.727 66.2877C219.727 76.5439 228.027 84.8582 238.265 84.8582Z" fill="#00A8E9"/>
<path d="M284.2 93.2936L220.004 116.41C219.804 116.483 219.591 116.515 219.378 116.506C219.165 116.496 218.956 116.444 218.763 116.353C218.57 116.262 218.396 116.134 218.253 115.976C218.109 115.818 217.998 115.633 217.926 115.432C217.854 115.231 217.822 115.018 217.832 114.805C217.843 114.591 217.895 114.382 217.986 114.189C218.077 113.996 218.205 113.823 218.363 113.679C218.521 113.536 218.706 113.425 218.907 113.353L283.103 90.2363C283.508 90.0919 283.953 90.114 284.341 90.2978C284.729 90.4816 285.029 90.8122 285.174 91.2169C285.319 91.6216 285.298 92.0675 285.116 92.4568C284.933 92.8461 284.604 93.147 284.2 93.2936V93.2936Z" fill="#E6E6E6"/>
<path d="M265.136 107.951L244.02 115.554C243.82 115.627 243.607 115.659 243.394 115.649C243.181 115.64 242.972 115.588 242.779 115.497C242.586 115.406 242.413 115.278 242.269 115.12C242.126 114.962 242.015 114.777 241.943 114.576C241.871 114.375 241.839 114.162 241.849 113.949C241.859 113.735 241.911 113.526 242.003 113.333C242.094 113.14 242.222 112.967 242.38 112.823C242.538 112.68 242.722 112.569 242.923 112.497L264.039 104.893C264.444 104.747 264.89 104.769 265.279 104.952C265.668 105.136 265.968 105.467 266.114 105.872C266.259 106.278 266.238 106.725 266.055 107.114C265.871 107.504 265.541 107.805 265.136 107.951V107.951Z" fill="#E6E6E6"/>
<path d="M270.159 121.948L249.043 129.552C248.842 129.624 248.63 129.656 248.417 129.645C248.204 129.635 247.996 129.583 247.803 129.492C247.61 129.401 247.437 129.273 247.294 129.116C247.151 128.958 247.04 128.773 246.968 128.572C246.896 128.372 246.864 128.159 246.874 127.946C246.885 127.732 246.936 127.523 247.027 127.33C247.118 127.137 247.246 126.964 247.403 126.821C247.561 126.677 247.745 126.566 247.946 126.494L269.062 118.89C269.466 118.745 269.912 118.766 270.301 118.95C270.69 119.133 270.991 119.464 271.136 119.87C271.282 120.275 271.26 120.722 271.077 121.112C270.894 121.501 270.563 121.802 270.159 121.948V121.948Z" fill="#E6E6E6"/>
<path d="M272.731 129.117L251.615 136.721C251.415 136.794 251.202 136.826 250.989 136.816C250.776 136.807 250.566 136.755 250.373 136.664C250.18 136.573 250.007 136.445 249.863 136.287C249.72 136.129 249.609 135.944 249.537 135.743C249.465 135.542 249.433 135.329 249.443 135.115C249.453 134.902 249.506 134.692 249.597 134.499C249.688 134.306 249.816 134.133 249.974 133.989C250.132 133.846 250.317 133.735 250.518 133.664L271.634 126.06C271.835 125.987 272.047 125.955 272.26 125.964C272.474 125.974 272.683 126.026 272.876 126.117C273.069 126.208 273.242 126.336 273.385 126.494C273.529 126.652 273.64 126.837 273.712 127.038C273.784 127.239 273.816 127.452 273.806 127.665C273.795 127.879 273.743 128.088 273.652 128.281C273.561 128.474 273.433 128.648 273.275 128.791C273.117 128.934 272.932 129.045 272.731 129.117L272.731 129.117Z" fill="#E6E6E6"/>
<path d="M279.455 110.587L234.654 126.719C234.453 126.792 234.24 126.824 234.027 126.814C233.814 126.805 233.605 126.753 233.412 126.662C233.219 126.571 233.046 126.443 232.902 126.285C232.759 126.127 232.648 125.942 232.576 125.741C232.504 125.54 232.472 125.327 232.482 125.114C232.492 124.9 232.545 124.691 232.636 124.498C232.727 124.305 232.855 124.131 233.013 123.988C233.171 123.845 233.356 123.734 233.557 123.662L278.358 107.529C278.558 107.457 278.771 107.424 278.984 107.434C279.197 107.444 279.406 107.496 279.599 107.586C279.792 107.677 279.965 107.805 280.109 107.963C280.252 108.121 280.364 108.306 280.436 108.507C280.508 108.708 280.54 108.922 280.529 109.135C280.519 109.348 280.467 109.558 280.376 109.751C280.285 109.944 280.156 110.117 279.998 110.261C279.84 110.404 279.656 110.515 279.455 110.587V110.587Z" fill="#E6E6E6"/>
<path d="M270.431 146.521L262.764 149.281C262.076 149.529 261.318 149.492 260.657 149.18C259.995 148.867 259.485 148.305 259.238 147.616C258.991 146.927 259.027 146.167 259.338 145.505C259.649 144.842 260.211 144.331 260.898 144.083L268.565 141.322C269.253 141.075 270.011 141.111 270.672 141.423C271.334 141.736 271.844 142.298 272.091 142.987C272.338 143.677 272.302 144.436 271.991 145.098C271.68 145.761 271.118 146.272 270.431 146.521V146.521Z" fill="#00A8E9"/>
<path d="M210.011 24.7148C210.6 24.7148 211.078 24.2365 211.078 23.6466C211.078 23.0567 210.6 22.5785 210.011 22.5785C209.423 22.5785 208.945 23.0567 208.945 23.6466C208.945 24.2365 209.423 24.7148 210.011 24.7148Z" fill="white"/>
<path d="M87.3895 83.721C99.3398 69.6292 118.73 60.7483 136.606 65.3526C120.505 77.3602 109.164 94.6858 104.588 114.264C102.85 121.821 101.703 130.407 95.5782 135.15C91.7674 138.101 86.6432 138.908 81.8565 138.372C77.0695 137.836 72.5134 136.087 68.0186 134.352L66.8235 134.485C69.8297 116.242 75.4392 97.8128 87.3895 83.721Z" fill="#F0F0F0"/>
<path d="M136.561 65.738C121.803 69.6969 108.666 78.2135 99.0147 90.078C96.8919 92.5953 95.1783 95.432 93.9372 98.4837C92.8241 101.496 92.5364 104.751 93.1041 107.912C93.5742 110.87 94.3971 113.841 94.1413 116.862C93.9874 118.407 93.5094 119.901 92.7386 121.247C91.9678 122.594 90.9216 123.762 89.6687 124.674C86.6057 127.031 82.8803 128.144 79.1995 129.105C75.1126 130.173 70.8507 131.217 67.5661 134.034C67.1681 134.376 66.6627 133.737 67.06 133.396C72.7747 128.495 80.8908 128.91 87.257 125.296C90.2277 123.61 92.709 121.017 93.2435 117.528C93.7109 114.477 92.865 111.412 92.3631 108.421C91.7642 105.346 91.9262 102.17 92.8349 99.1718C93.9169 96.0666 95.5185 93.1685 97.5711 90.6016C102.1 84.7488 107.52 79.6459 113.631 75.4796C120.58 70.6859 128.296 67.1183 136.445 64.9311C136.95 64.796 137.062 65.6037 136.561 65.738H136.561Z" fill="white"/>
<path d="M101.898 86.0745C100.131 84.1822 99.0924 81.7222 98.9686 79.1338C98.8447 76.5454 99.6434 73.9972 101.222 71.9442C101.543 71.5299 102.2 72.0099 101.879 72.4247C100.406 74.3337 99.662 76.7075 99.7823 79.1175C99.9025 81.5276 100.879 83.8152 102.535 85.5675C102.894 85.9488 102.255 86.4535 101.898 86.0745H101.898Z" fill="white"/>
<path d="M92.6686 106.444C97.9518 106.667 103.125 104.888 107.157 101.46C107.556 101.12 108.061 101.759 107.663 102.098C103.461 105.657 98.0733 107.498 92.5761 107.253C92.0521 107.23 92.1475 106.42 92.6686 106.444V106.444Z" fill="white"/>
<path d="M120.788 71.7461C121.32 72.621 122.06 73.35 122.942 73.8676C123.824 74.3851 124.821 74.6751 125.843 74.7114C126.367 74.7284 126.271 75.538 125.75 75.521C124.621 75.4757 123.521 75.1541 122.545 74.5844C121.569 74.0148 120.747 73.2143 120.151 72.2531C120.087 72.1672 120.059 72.0602 120.071 71.9538C120.083 71.8475 120.135 71.7498 120.217 71.6805C120.301 71.6138 120.409 71.5833 120.516 71.5956C120.623 71.6079 120.721 71.6619 120.788 71.7461V71.7461Z" fill="white"/>
<path d="M163.187 122.012C162.86 122.011 162.532 122.009 162.201 122.014C157.798 122.019 153.402 122.382 149.058 123.101C148.721 123.151 148.381 123.207 148.046 123.267C137.598 125.109 127.583 128.878 118.509 134.383C114.9 136.577 111.463 139.043 108.227 141.759C103.759 145.511 99.2128 149.934 93.9243 151.93C93.3749 152.144 92.8127 152.324 92.2411 152.469L67.0779 135.935C67.0396 135.869 66.9972 135.808 66.9585 135.742L65.9237 135.128C66.0808 134.976 66.247 134.822 66.4041 134.67C66.4949 134.582 66.5912 134.497 66.682 134.408C66.7443 134.351 66.8069 134.293 66.8598 134.237C66.8804 134.218 66.9013 134.199 66.9183 134.185C66.9712 134.13 67.0262 134.084 67.0754 134.034C68.002 133.17 68.9362 132.312 69.8781 131.458C69.8819 131.452 69.8819 131.452 69.8913 131.45C77.0848 124.966 84.882 119.026 93.3313 114.46C93.5855 114.323 93.8433 114.18 94.109 114.05C97.9289 112.013 101.909 110.292 106.008 108.905C108.256 108.153 110.54 107.515 112.851 106.994C118.827 105.659 124.975 105.274 131.07 105.853C143.221 107.01 154.867 112.046 162.603 121.299C162.801 121.536 162.993 121.769 163.187 122.012Z" fill="#F0F0F0"/>
<path d="M162.921 122.295C148.759 116.555 133.151 115.431 118.314 119.084C115.106 119.813 112.033 121.044 109.208 122.733C106.509 124.466 104.323 126.892 102.877 129.758C101.474 132.403 100.346 135.272 98.3259 137.53C97.2748 138.67 95.9951 139.575 94.5704 140.185C93.1458 140.795 91.6086 141.097 90.0595 141.07C86.1979 141.104 82.5545 139.745 79.0376 138.293C75.1328 136.681 71.1024 134.944 66.7866 135.212C66.2637 135.245 66.2439 134.43 66.766 134.398C74.2747 133.931 80.5051 139.158 87.7601 140.112C91.1454 140.557 94.6852 139.983 97.209 137.52C99.4159 135.366 100.582 132.408 101.979 129.718C103.349 126.901 105.387 124.463 107.915 122.617C110.645 120.79 113.665 119.442 116.847 118.631C123.981 116.689 131.375 115.884 138.758 116.243C147.187 116.607 155.492 118.412 163.314 121.581C163.798 121.777 163.402 122.49 162.921 122.295L162.921 122.295Z" fill="white"/>
<path d="M123.022 117.626C122.749 115.049 123.398 112.459 124.855 110.317C126.312 108.176 128.481 106.623 130.975 105.936C131.48 105.799 131.717 106.578 131.211 106.716C128.887 107.351 126.867 108.798 125.514 110.795C124.162 112.792 123.567 115.207 123.836 117.605C123.894 118.126 123.08 118.144 123.022 117.626V117.626Z" fill="white"/>
<path d="M103.411 128.323C107.495 131.688 112.695 133.387 117.974 133.082C118.497 133.052 118.517 133.866 117.995 133.897C112.501 134.204 107.093 132.425 102.851 128.914C102.447 128.579 103.009 127.99 103.411 128.323H103.411Z" fill="white"/>
<path d="M146.717 117.579C146.615 118.598 146.768 119.626 147.161 120.572C147.555 121.517 148.176 122.35 148.97 122.995C149.378 123.325 148.815 123.913 148.41 123.586C147.536 122.869 146.851 121.948 146.414 120.905C145.977 119.861 145.802 118.726 145.903 117.599C145.904 117.492 145.946 117.39 146.019 117.312C146.093 117.235 146.193 117.188 146.3 117.182C146.407 117.18 146.512 117.22 146.59 117.294C146.668 117.369 146.713 117.471 146.717 117.579V117.579Z" fill="white"/>
<path d="M446.033 354.568C459.064 357.768 474.26 354.725 482.831 344.385C468.243 344.183 454.196 338.819 443.176 329.24C438.939 325.531 434.613 320.963 428.989 320.783C425.49 320.671 422.129 322.383 419.537 324.74C416.946 327.099 415.006 330.073 413.096 333.013L412.336 333.445C421.864 342.907 433.003 351.367 446.033 354.568Z" fill="#F0F0F0"/>
<path d="M482.641 344.178C472.265 348.143 460.907 348.733 450.178 345.863C447.857 345.286 445.642 344.347 443.613 343.079C441.677 341.78 440.123 339.985 439.113 337.881C438.133 335.938 437.354 333.837 435.919 332.167C435.172 331.323 434.255 330.647 433.228 330.183C432.202 329.719 431.089 329.478 429.963 329.475C427.157 329.394 424.49 330.328 421.913 331.332C419.052 332.447 416.098 333.651 412.965 333.393C412.586 333.362 412.559 333.954 412.938 333.985C418.388 334.433 422.992 330.725 428.278 330.137C430.744 329.863 433.309 330.331 435.107 332.158C436.68 333.756 437.484 335.922 438.461 337.898C439.415 339.965 440.861 341.766 442.671 343.144C444.629 344.511 446.804 345.535 449.105 346.171C454.261 347.685 459.622 348.378 464.993 348.224C471.124 348.083 477.186 346.891 482.916 344.702C483.27 344.567 482.993 344.043 482.641 344.178H482.641Z" fill="white"/>
<path d="M453.578 346.991C453.342 348.859 453.776 350.751 454.804 352.329C455.831 353.906 457.385 355.066 459.188 355.602C459.553 355.709 459.736 355.145 459.371 355.038C457.691 354.543 456.244 353.462 455.29 351.991C454.336 350.52 453.938 348.756 454.169 347.018C454.218 346.64 453.627 346.615 453.578 346.991V346.991Z" fill="white"/>
<path d="M439.481 338.932C442.498 336.546 446.301 335.387 450.133 335.685C450.513 335.715 450.539 335.123 450.16 335.093C446.172 334.79 442.216 336.005 439.082 338.495C438.784 338.732 439.184 339.168 439.481 338.932H439.481Z" fill="white"/>
<path d="M470.796 347.369C470.737 346.627 470.863 345.882 471.163 345.201C471.462 344.519 471.926 343.923 472.512 343.466C472.814 343.232 472.413 342.797 472.114 343.029C471.468 343.537 470.957 344.196 470.624 344.948C470.292 345.7 470.148 346.522 470.206 347.342C470.205 347.42 470.233 347.496 470.285 347.553C470.338 347.61 470.41 347.646 470.488 347.652C470.566 347.655 470.642 347.627 470.7 347.574C470.758 347.521 470.792 347.448 470.796 347.369V347.369Z" fill="white"/>
<path d="M474.395 299.672C474.203 299.813 474.011 299.953 473.814 300.092C471.218 301.968 468.475 303.629 465.611 305.06C465.391 305.174 465.167 305.286 464.944 305.394C458.007 308.767 450.506 310.82 442.82 311.45C439.762 311.698 436.689 311.712 433.629 311.493C429.402 311.19 424.843 310.524 420.88 311.606C420.466 311.714 420.058 311.848 419.66 312.007L411.869 332.482C411.875 332.537 411.876 332.591 411.881 332.647L411.533 333.45C411.69 333.472 411.853 333.492 412.01 333.515C412.101 333.528 412.194 333.537 412.285 333.55C412.346 333.557 412.408 333.565 412.463 333.575C412.483 333.578 412.503 333.58 412.519 333.581C412.574 333.591 412.626 333.595 412.676 333.603C413.589 333.716 414.504 333.823 415.422 333.924C415.427 333.926 415.427 333.926 415.433 333.923C422.418 334.758 429.477 334.759 436.463 333.928C436.671 333.9 436.884 333.875 437.095 333.838C440.211 333.407 443.287 332.722 446.291 331.79C447.935 331.274 449.551 330.675 451.134 329.996C455.222 328.232 459.006 325.835 462.35 322.893C469.015 317.028 473.732 309.092 474.354 300.341C474.37 300.117 474.384 299.898 474.395 299.672Z" fill="#F0F0F0"/>
<path d="M474.119 299.619C468.218 309.043 459.503 316.365 449.212 320.544C447.012 321.483 444.679 322.069 442.297 322.281C439.97 322.411 437.651 321.915 435.58 320.845C433.63 319.885 431.745 318.677 429.596 318.209C428.492 317.986 427.353 317.999 426.255 318.248C425.156 318.496 424.123 318.975 423.222 319.651C420.933 321.279 419.365 323.634 417.911 325.99C416.296 328.606 414.661 331.349 412.005 333.032C411.683 333.236 412.018 333.724 412.339 333.521C416.96 330.592 418.408 324.855 422.275 321.197C424.079 319.49 426.408 318.317 428.942 318.692C431.158 319.019 433.102 320.263 435.069 321.251C437.074 322.326 439.311 322.892 441.584 322.901C443.969 322.812 446.321 322.317 448.54 321.437C453.567 319.537 458.265 316.856 462.46 313.494C467.27 309.683 471.394 305.076 474.653 299.872C474.855 299.55 474.319 299.299 474.119 299.619H474.119Z" fill="white"/>
<path d="M452.604 319.394C453.539 321.028 455.023 322.277 456.791 322.916C458.56 323.556 460.498 323.545 462.259 322.886C462.615 322.751 462.422 322.19 462.066 322.325C460.427 322.943 458.622 322.953 456.976 322.354C455.331 321.755 453.953 320.586 453.092 319.059C452.905 318.727 452.418 319.064 452.604 319.394Z" fill="white"/>
<path d="M436.505 321.462C437.48 317.737 439.82 314.517 443.059 312.444C443.38 312.239 443.046 311.751 442.725 311.956C439.358 314.119 436.93 317.475 435.924 321.353C435.829 321.723 436.41 321.829 436.505 321.462Z" fill="white"/>
<path d="M466.58 309.311C466.087 308.754 465.739 308.083 465.569 307.358C465.399 306.634 465.411 305.878 465.604 305.159C465.704 304.791 465.122 304.685 465.023 305.051C464.813 305.846 464.801 306.68 464.987 307.481C465.173 308.282 465.553 309.026 466.092 309.646C466.138 309.709 466.206 309.751 466.282 309.766C466.359 309.78 466.437 309.765 466.503 309.723C466.567 309.678 466.611 309.61 466.626 309.533C466.64 309.456 466.624 309.376 466.58 309.311V309.311Z" fill="white"/>
<path d="M498.246 229.105L478.376 262.601L479.131 263L472.403 275.779L471.002 275.036L466.581 282.485L467.679 283.118L460.47 295.622L459.221 294.9L394.387 404.204C392.687 407.065 389.923 409.133 386.703 409.954C383.482 410.775 380.068 410.283 377.209 408.585L256.681 336.842C253.825 335.139 251.761 332.37 250.941 329.144C250.121 325.917 250.612 322.497 252.307 319.633L356.166 144.534C357.866 141.674 360.63 139.606 363.85 138.784C367.071 137.963 370.485 138.455 373.344 140.153L493.872 211.897C496.726 213.601 498.79 216.369 499.61 219.595C500.43 222.821 499.939 226.241 498.246 229.105V229.105Z" fill="#3F3D56"/>
<path d="M381.505 401.826L260.552 329.831C259.672 329.305 259.036 328.452 258.783 327.457C258.53 326.463 258.682 325.409 259.204 324.526L363.751 148.262C364.276 147.381 365.127 146.743 366.12 146.49C367.113 146.237 368.165 146.389 369.046 146.912L489.999 218.908C490.879 219.433 491.516 220.287 491.768 221.281C492.021 222.275 491.87 223.33 491.347 224.212L386.8 400.476C386.276 401.358 385.424 401.995 384.431 402.248C383.438 402.501 382.386 402.35 381.505 401.826Z" fill="white"/>
<path d="M431.189 180.124C431.778 180.124 432.255 179.646 432.255 179.056C432.255 178.466 431.778 177.988 431.189 177.988C430.6 177.988 430.123 178.466 430.123 179.056C430.123 179.646 430.6 180.124 431.189 180.124Z" fill="white"/>
<path d="M424.59 306.388L323.624 246.29C323.308 246.103 323.031 245.855 322.81 245.561C322.589 245.267 322.428 244.932 322.337 244.575C322.246 244.219 322.226 243.847 322.278 243.483C322.33 243.119 322.454 242.768 322.641 242.452C322.829 242.135 323.077 241.859 323.372 241.639C323.666 241.418 324.001 241.259 324.358 241.169C324.714 241.078 325.085 241.06 325.448 241.113C325.812 241.167 326.161 241.292 326.476 241.481L427.442 301.58C427.759 301.767 428.035 302.015 428.256 302.309C428.477 302.603 428.638 302.938 428.729 303.295C428.821 303.651 428.841 304.022 428.789 304.387C428.736 304.751 428.613 305.102 428.425 305.418C428.237 305.735 427.989 306.011 427.695 306.231C427.4 306.451 427.065 306.611 426.709 306.701C426.352 306.791 425.982 306.81 425.618 306.756C425.255 306.703 424.905 306.578 424.59 306.388H424.59Z" fill="#E6E6E6"/>
<path d="M384.275 297.076L351.065 277.308C350.75 277.12 350.474 276.872 350.255 276.578C350.035 276.284 349.875 275.949 349.785 275.593C349.694 275.238 349.675 274.867 349.727 274.504C349.78 274.14 349.903 273.791 350.09 273.475C350.278 273.159 350.525 272.883 350.819 272.663C351.113 272.443 351.447 272.284 351.802 272.193C352.157 272.102 352.527 272.083 352.89 272.135C353.253 272.188 353.602 272.312 353.917 272.499L387.127 292.267C387.442 292.455 387.718 292.703 387.937 292.997C388.157 293.291 388.316 293.626 388.407 293.982C388.497 294.338 388.517 294.708 388.464 295.071C388.412 295.435 388.288 295.785 388.101 296.1C387.914 296.416 387.666 296.692 387.373 296.912C387.079 297.132 386.745 297.291 386.39 297.382C386.035 297.473 385.665 297.492 385.302 297.44C384.939 297.387 384.59 297.264 384.275 297.076V297.076Z" fill="#E6E6E6"/>
<path d="M371.218 319.09L338.008 299.322C337.371 298.943 336.911 298.327 336.729 297.608C336.546 296.889 336.656 296.127 337.034 295.49C337.412 294.852 338.028 294.391 338.745 294.208C339.463 294.025 340.223 294.135 340.86 294.514L374.07 314.282C374.385 314.469 374.66 314.717 374.88 315.011C375.099 315.306 375.259 315.64 375.349 315.996C375.44 316.352 375.459 316.722 375.407 317.086C375.355 317.449 375.231 317.799 375.044 318.115C374.857 318.43 374.609 318.706 374.316 318.926C374.022 319.146 373.688 319.306 373.333 319.396C372.977 319.487 372.608 319.506 372.245 319.454C371.882 319.401 371.533 319.278 371.218 319.09V319.09Z" fill="#E6E6E6"/>
<path d="M364.53 330.366L331.32 310.598C331.004 310.41 330.727 310.163 330.507 309.868C330.287 309.574 330.126 309.239 330.035 308.883C329.944 308.527 329.925 308.156 329.977 307.792C330.029 307.428 330.152 307.078 330.34 306.761C330.528 306.445 330.776 306.169 331.07 305.949C331.364 305.729 331.699 305.569 332.054 305.479C332.41 305.389 332.781 305.37 333.144 305.423C333.507 305.476 333.856 305.601 334.172 305.789L367.382 325.557C367.699 325.744 367.976 325.992 368.197 326.286C368.417 326.58 368.578 326.915 368.67 327.272C368.761 327.629 368.781 328 368.729 328.364C368.677 328.729 368.553 329.079 368.366 329.396C368.178 329.712 367.93 329.989 367.635 330.209C367.34 330.429 367.005 330.589 366.649 330.679C366.293 330.769 365.922 330.788 365.558 330.734C365.195 330.68 364.845 330.555 364.53 330.366V330.366Z" fill="#E6E6E6"/>
<path d="M396.464 319.015L326.002 277.074C325.369 276.694 324.912 276.077 324.731 275.36C324.551 274.643 324.661 273.883 325.038 273.247C325.415 272.611 326.029 272.151 326.744 271.967C327.459 271.783 328.218 271.89 328.854 272.266L399.316 314.207C399.632 314.394 399.909 314.641 400.13 314.936C400.351 315.23 400.512 315.565 400.603 315.921C400.695 316.278 400.715 316.649 400.663 317.014C400.61 317.378 400.487 317.729 400.299 318.045C400.111 318.362 399.863 318.638 399.569 318.858C399.274 319.079 398.939 319.238 398.583 319.328C398.226 319.419 397.856 319.437 397.492 319.383C397.128 319.33 396.779 319.205 396.464 319.015V319.015Z" fill="#E6E6E6"/>
<path d="M383.034 372.616L370.975 365.439C369.894 364.794 369.113 363.745 368.804 362.524C368.494 361.302 368.681 360.007 369.324 358.924C369.966 357.84 371.012 357.057 372.231 356.745C373.45 356.434 374.743 356.62 375.825 357.262L387.883 364.44C388.966 365.084 389.748 366.133 390.059 367.355C390.369 368.577 390.183 369.873 389.539 370.957C388.896 372.041 387.85 372.825 386.63 373.137C385.409 373.448 384.116 373.261 383.034 372.616Z" fill="#00A8E9"/>
<path d="M405.532 256.076C419.182 256.076 430.248 244.99 430.248 231.315C430.248 217.64 419.182 206.555 405.532 206.555C391.881 206.555 380.815 217.64 380.815 231.315C380.815 244.99 391.881 256.076 405.532 256.076Z" fill="#00A8E9"/>
<path d="M0.291138 331.934H334.778V137.942C334.776 136.489 334.199 135.095 333.173 134.068C332.147 133.04 330.756 132.462 329.305 132.46H5.76383C4.31291 132.462 2.92188 133.04 1.89591 134.068C0.869939 135.095 0.292813 136.489 0.291138 137.942V331.934Z" fill="#CACACA"/>
<path d="M324.443 140.042H10.6255V318.519H324.443V140.042Z" fill="white"/>
<path d="M4.49965e-10 326.684V350.623C-1.08191e-05 351.615 0.195101 352.598 0.574196 353.515C0.953291 354.432 1.50895 355.265 2.20943 355.967C2.90992 356.668 3.74153 357.225 4.65676 357.605C5.572 357.985 6.55294 358.18 7.54358 358.18H131V405.424H129.36C129.231 405.424 129.104 405.449 128.985 405.498C128.866 405.548 128.758 405.62 128.667 405.711C128.576 405.802 128.504 405.911 128.454 406.03C128.405 406.149 128.38 406.276 128.38 406.405V409.691C128.38 409.82 128.405 409.948 128.454 410.067C128.504 410.186 128.576 410.294 128.667 410.386C128.758 410.477 128.866 410.549 128.985 410.598C129.104 410.648 129.231 410.673 129.36 410.673H206C206.129 410.673 206.256 410.648 206.375 410.598C206.494 410.549 206.602 410.477 206.693 410.386C206.784 410.294 206.856 410.186 206.905 410.067C206.955 409.948 206.98 409.82 206.98 409.691V406.405C206.98 406.277 206.955 406.149 206.905 406.03C206.856 405.911 206.784 405.802 206.693 405.711C206.602 405.62 206.494 405.548 206.375 405.498C206.256 405.449 206.129 405.424 206 405.424H204.36V358.18H327.816C328.807 358.18 329.788 357.985 330.703 357.605C331.618 357.225 332.45 356.668 333.15 355.967C333.851 355.265 334.406 354.432 334.786 353.515C335.165 352.598 335.36 351.615 335.36 350.623V326.684L4.49965e-10 326.684Z" fill="#3F3D56"/>
<path d="M279.033 199.732H130.421C129.485 199.732 128.586 199.359 127.924 198.695C127.261 198.032 126.889 197.132 126.889 196.193C126.889 195.255 127.261 194.354 127.924 193.691C128.586 193.027 129.485 192.654 130.421 192.654H279.033C279.97 192.654 280.869 193.027 281.531 193.691C282.194 194.354 282.566 195.255 282.566 196.193C282.566 197.132 282.194 198.032 281.531 198.695C280.869 199.359 279.97 199.732 279.033 199.732V199.732Z" fill="#E6E6E6"/>
<path d="M229.169 215.706H180.286C179.349 215.706 178.451 215.333 177.788 214.67C177.126 214.006 176.753 213.106 176.753 212.167C176.753 211.229 177.126 210.329 177.788 209.665C178.451 209.001 179.349 208.628 180.286 208.628H229.169C230.106 208.628 231.004 209.001 231.667 209.665C232.329 210.329 232.701 211.229 232.701 212.167C232.701 213.106 232.329 214.006 231.667 214.67C231.004 215.333 230.106 215.706 229.169 215.706V215.706Z" fill="#E6E6E6"/>
<path d="M229.169 248.109H180.286C179.349 248.109 178.451 247.736 177.788 247.073C177.126 246.409 176.753 245.509 176.753 244.57C176.753 243.632 177.126 242.731 177.788 242.068C178.451 241.404 179.349 241.031 180.286 241.031H229.169C230.106 241.031 231.004 241.404 231.667 242.068C232.329 242.731 232.701 243.632 232.701 244.57C232.701 245.509 232.329 246.409 231.667 247.073C231.004 247.736 230.106 248.109 229.169 248.109Z" fill="#E6E6E6"/>
<path d="M229.169 264.705H180.286C179.822 264.705 179.363 264.614 178.934 264.436C178.506 264.258 178.116 263.998 177.788 263.669C177.46 263.34 177.2 262.95 177.023 262.521C176.845 262.092 176.754 261.631 176.754 261.167C176.754 260.702 176.845 260.242 177.023 259.813C177.2 259.383 177.46 258.993 177.788 258.665C178.116 258.336 178.506 258.075 178.934 257.897C179.363 257.72 179.822 257.628 180.286 257.628H229.169C229.633 257.628 230.092 257.72 230.521 257.897C230.949 258.075 231.339 258.336 231.667 258.665C231.995 258.993 232.255 259.383 232.432 259.813C232.61 260.242 232.701 260.702 232.701 261.167C232.701 261.631 232.61 262.092 232.432 262.521C232.255 262.95 231.995 263.34 231.667 263.669C231.339 263.998 230.949 264.258 230.521 264.436C230.092 264.614 229.633 264.705 229.169 264.705V264.705Z" fill="#E6E6E6"/>
<path d="M256.584 231.68H152.871C151.934 231.68 151.036 231.307 150.373 230.644C149.711 229.98 149.339 229.08 149.339 228.142C149.339 227.203 149.711 226.303 150.373 225.639C151.036 224.976 151.934 224.603 152.871 224.603H256.584C257.52 224.603 258.419 224.976 259.081 225.639C259.744 226.303 260.116 227.203 260.116 228.142C260.116 229.08 259.744 229.98 259.081 230.644C258.419 231.307 257.52 231.68 256.584 231.68V231.68Z" fill="#E6E6E6"/>
<path d="M276.559 298.686H258.81C257.217 298.686 255.689 298.052 254.563 296.923C253.436 295.795 252.803 294.264 252.803 292.668C252.803 291.072 253.436 289.542 254.563 288.413C255.689 287.285 257.217 286.651 258.81 286.651H276.559C278.152 286.651 279.68 287.285 280.807 288.413C281.933 289.542 282.566 291.072 282.566 292.668C282.566 294.264 281.933 295.795 280.807 296.923C279.68 298.052 278.152 298.686 276.559 298.686V298.686Z" fill="#00A8E9"/>
<path d="M83.6898 255.011C100.753 255.011 114.586 241.154 114.586 224.06C114.586 206.966 100.753 193.109 83.6898 193.109C66.6265 193.109 52.7939 206.966 52.7939 224.06C52.7939 241.154 66.6265 255.011 83.6898 255.011Z" fill="#00A8E9"/>
<path d="M445.234 411.95H0.81745C0.601047 411.949 0.393726 411.862 0.240928 411.709C0.0881292 411.555 0.00231934 411.347 0.00231934 411.131C0.00231934 410.914 0.0881292 410.706 0.240928 410.552C0.393726 410.399 0.601047 410.312 0.81745 410.312H445.234C445.45 410.312 445.657 410.399 445.81 410.552C445.963 410.706 446.049 410.914 446.049 411.131C446.049 411.347 445.963 411.555 445.81 411.709C445.657 411.862 445.45 411.949 445.234 411.95V411.95Z" fill="#CACACA"/>
<path d="M167.389 136.251C168.032 136.251 168.553 135.729 168.553 135.085C168.553 134.44 168.032 133.918 167.389 133.918C166.746 133.918 166.224 134.44 166.224 135.085C166.224 135.729 166.746 136.251 167.389 136.251Z" fill="white"/>
</g>
<defs>
<clipPath id="clip0_31_70">
<rect width="500" height="411.95" fill="white"/>
</clipPath>
</defs>
</svg>
