<svg width="inherit" height="inherit" viewBox="0 0 1440 150" fill="none" xmlns="http://www.w3.org/2000/svg" overflow="hidden">
<path fill-rule="evenodd" clip-rule="evenodd" d="M0 21.8144L48 30.1228C96 39.0245 192 56.2346 288 60.3888C384 64.543 480 56.2346 576 39.0245C672 21.8144 768 -3.70398 864 0.450178C960 4.60434 1056 39.0245 1152 56.2346C1248 72.8513 1344 72.8513 1392 72.8513H1440V150H1392C1344 150 1248 150 1152 150C1056 150 960 150 864 150C768 150 672 150 576 150C480 150 384 150 288 150C192 150 96 150 48 150H0V21.8144Z" fill="#0099FF"/>
</svg>
